<svg xmlns="http://www.w3.org/2000/svg" width="1680" height="950" viewBox="0 0 1680 950" font-family="Arial, Helvetica, sans-serif">
<defs><filter id="shadow" x="-10%" y="-10%" width="120%" height="135%"><feDropShadow dx="0" dy="2" stdDeviation="3" flood-color="#0f172a" flood-opacity="0.10"/></filter><marker id="arrow0" viewBox="0 0 10 10" refX="8.5" refY="5" markerWidth="7" markerHeight="7" orient="auto-start-reverse"><path d="M0,0 L10,5 L0,10 z" fill="#1e293b"/></marker><marker id="arrow1" viewBox="0 0 10 10" refX="8.5" refY="5" markerWidth="7" markerHeight="7" orient="auto-start-reverse"><path d="M0,0 L10,5 L0,10 z" fill="#94a3b8"/></marker></defs>
<rect width="1680" height="950" fill="#ffffff"/>
<text x="36" y="46" font-size="30" fill="#1e293b" font-weight="700">From a user's posts to a high-risk score</text>
<text x="36" y="76" font-size="16" fill="#64748b">Hidden states from four language models are pooled, compressed to 1024 features, and passed to two classifiers.</text>
<rect x="36" y="104" width="164" height="196" rx="14" fill="#ffffff" stroke="#cbd5e1" stroke-width="1.5" filter="url(#shadow)"/>
<rect x="52" y="122" width="132" height="36" rx="8" fill="#f1f5f9"/>
<circle cx="67" cy="140" r="8" fill="#cbd5e1"/>
<rect x="82" y="132" width="88" height="6" rx="3" fill="#cbd5e1"/>
<rect x="82" y="143" width="64" height="6" rx="3" fill="#e2e8f0"/>
<rect x="52" y="166" width="132" height="36" rx="8" fill="#f1f5f9"/>
<circle cx="67" cy="184" r="8" fill="#cbd5e1"/>
<rect x="82" y="176" width="70" height="6" rx="3" fill="#cbd5e1"/>
<rect x="82" y="187" width="80" height="6" rx="3" fill="#e2e8f0"/>
<rect x="52" y="210" width="132" height="36" rx="8" fill="#f1f5f9"/>
<circle cx="67" cy="228" r="8" fill="#cbd5e1"/>
<rect x="82" y="220" width="88" height="6" rx="3" fill="#cbd5e1"/>
<rect x="82" y="231" width="64" height="6" rx="3" fill="#e2e8f0"/>
<text x="118" y="272" font-size="16" fill="#1e293b" font-weight="700" text-anchor="middle">Facebook posts</text>
<text x="118" y="290" font-size="12" fill="#64748b" text-anchor="middle">10 or more per user</text>
<line x1="206" y1="202.0" x2="228" y2="202.0" stroke="#1e293b" stroke-width="2" stroke-linecap="round" marker-end="url(#arrow0)"/>
<rect x="236" y="104" width="254" height="196" rx="14" fill="#ffffff" stroke="#cbd5e1" stroke-width="1.5" filter="url(#shadow)"/>
<text x="363" y="136" font-size="16" fill="#1e293b" font-weight="700" text-anchor="middle">4 language models</text>
<rect x="254" y="152" width="218" height="25" rx="12.5" fill="#f8fafc" stroke="#e2e8f0" stroke-width="1"/>
<circle cx="270" cy="164.5" r="5" fill="#6366f1"/>
<text x="283" y="169" font-size="13" fill="#1e293b">Qwen3-32B</text>
<rect x="254" y="183" width="218" height="25" rx="12.5" fill="#f8fafc" stroke="#e2e8f0" stroke-width="1"/>
<circle cx="270" cy="195.5" r="5" fill="#0ea5e9"/>
<text x="283" y="200" font-size="13" fill="#1e293b">DeepSeek-R1-Distill-32B</text>
<rect x="254" y="214" width="218" height="25" rx="12.5" fill="#f8fafc" stroke="#e2e8f0" stroke-width="1"/>
<circle cx="270" cy="226.5" r="5" fill="#10b981"/>
<text x="283" y="231" font-size="13" fill="#1e293b">Gemma-4-26B (MoE)</text>
<rect x="254" y="245" width="218" height="25" rx="12.5" fill="#f8fafc" stroke="#e2e8f0" stroke-width="1"/>
<circle cx="270" cy="257.5" r="5" fill="#f43f5e"/>
<text x="283" y="262" font-size="13" fill="#1e293b">Llama-3.3-70B</text>
<text x="363" y="290" font-size="12" fill="#64748b" text-anchor="middle">hidden states from several layers</text>
<line x1="496" y1="202.0" x2="518" y2="202.0" stroke="#1e293b" stroke-width="2" stroke-linecap="round" marker-end="url(#arrow0)"/>
<rect x="526" y="104" width="244" height="196" rx="14" fill="#ffffff" stroke="#cbd5e1" stroke-width="1.5" filter="url(#shadow)"/>
<text x="648" y="136" font-size="16" fill="#1e293b" font-weight="700" text-anchor="middle">4 positions per layer</text>
<rect x="546" y="158" width="9" height="9" rx="2" fill="#94a3b8"/>
<rect x="557" y="158" width="9" height="9" rx="2" fill="#94a3b8"/>
<rect x="568" y="158" width="9" height="9" rx="2" fill="#94a3b8"/>
<rect x="579" y="158" width="9" height="9" rx="2" fill="#94a3b8"/>
<rect x="590" y="158" width="9" height="9" rx="2" fill="#94a3b8"/>
<text x="610" y="167" font-size="13" fill="#1e293b">Input only</text>
<rect x="546" y="188" width="9" height="9" rx="2" fill="#60a5fa"/>
<rect x="557" y="188" width="9" height="9" rx="2" fill="#60a5fa"/>
<rect x="568" y="188" width="9" height="9" rx="2" fill="#60a5fa"/>
<rect x="579" y="188" width="9" height="9" rx="2" fill="#60a5fa"/>
<rect x="590" y="188" width="9" height="9" rx="2" fill="#60a5fa"/>
<text x="610" y="197" font-size="13" fill="#1e293b">Last prompt token</text>
<rect x="546" y="218" width="9" height="9" rx="2" fill="#a78bfa"/>
<rect x="557" y="218" width="9" height="9" rx="2" fill="#a78bfa"/>
<rect x="568" y="218" width="9" height="9" rx="2" fill="#a78bfa"/>
<rect x="579" y="218" width="9" height="9" rx="2" fill="#a78bfa"/>
<rect x="590" y="218" width="9" height="9" rx="2" fill="#a78bfa"/>
<text x="610" y="227" font-size="13" fill="#1e293b">Chain of thought</text>
<rect x="546" y="248" width="9" height="9" rx="2" fill="#f59e0b"/>
<rect x="557" y="248" width="9" height="9" rx="2" fill="#f59e0b"/>
<rect x="568" y="248" width="9" height="9" rx="2" fill="#f59e0b"/>
<rect x="579" y="248" width="9" height="9" rx="2" fill="#f59e0b"/>
<rect x="590" y="248" width="9" height="9" rx="2" fill="#f59e0b"/>
<text x="610" y="257" font-size="13" fill="#1e293b">Final prediction</text>
<text x="648" y="290" font-size="12" fill="#64748b" text-anchor="middle">56 vectors per user</text>
<line x1="776" y1="202.0" x2="796" y2="202.0" stroke="#1e293b" stroke-width="2" stroke-linecap="round" marker-end="url(#arrow0)"/>
<rect x="802" y="104" width="842" height="196" rx="14" fill="#f0fdfa" stroke="#0f766e" stroke-width="2" filter="url(#shadow)"/>
<text x="826" y="136" font-size="18" fill="#0f766e" font-weight="700">Attention fusion</text>
<text x="1001.28" y="136" font-size="13" fill="#64748b">fit on each training fold only</text>
<rect x="826" y="154" width="120" height="108" rx="10" fill="#ffffff" stroke="#cbd5e1" stroke-width="1.5"/>
<rect x="859" y="170" width="9" height="9" rx="2" fill="#94a3b8"/>
<rect x="870" y="170" width="9" height="9" rx="2" fill="#94a3b8"/>
<rect x="881" y="170" width="9" height="9" rx="2" fill="#94a3b8"/>
<rect x="892" y="170" width="9" height="9" rx="2" fill="#94a3b8"/>
<rect x="903" y="170" width="9" height="9" rx="2" fill="#94a3b8"/>
<rect x="859" y="185" width="9" height="9" rx="2" fill="#60a5fa"/>
<rect x="870" y="185" width="9" height="9" rx="2" fill="#60a5fa"/>
<rect x="881" y="185" width="9" height="9" rx="2" fill="#60a5fa"/>
<rect x="892" y="185" width="9" height="9" rx="2" fill="#60a5fa"/>
<rect x="903" y="185" width="9" height="9" rx="2" fill="#60a5fa"/>
<rect x="859" y="200" width="9" height="9" rx="2" fill="#a78bfa"/>
<rect x="870" y="200" width="9" height="9" rx="2" fill="#a78bfa"/>
<rect x="881" y="200" width="9" height="9" rx="2" fill="#a78bfa"/>
<rect x="892" y="200" width="9" height="9" rx="2" fill="#a78bfa"/>
<rect x="903" y="200" width="9" height="9" rx="2" fill="#a78bfa"/>
<rect x="859" y="215" width="9" height="9" rx="2" fill="#f59e0b"/>
<rect x="870" y="215" width="9" height="9" rx="2" fill="#f59e0b"/>
<rect x="881" y="215" width="9" height="9" rx="2" fill="#f59e0b"/>
<rect x="892" y="215" width="9" height="9" rx="2" fill="#f59e0b"/>
<rect x="903" y="215" width="9" height="9" rx="2" fill="#f59e0b"/>
<text x="886" y="242" font-size="13" fill="#1e293b" font-weight="700" text-anchor="middle">4 vectors</text>
<text x="886" y="256" font-size="10.5" fill="#64748b" text-anchor="middle">one model and layer</text>
<line x1="950" y1="208.0" x2="968" y2="208.0" stroke="#1e293b" stroke-width="1.5" stroke-linecap="round" marker-end="url(#arrow0)"/>
<rect x="972" y="154" width="130" height="108" rx="10" fill="#ffffff" stroke="#cbd5e1" stroke-width="1.5"/>
<text x="1037" y="188" font-size="14" fill="#1e293b" font-weight="700" text-anchor="middle">Score</text>
<text x="1037" y="214" font-size="15" fill="#1e293b" text-anchor="middle">s = w · h</text>
<text x="1037" y="240" font-size="11.5" fill="#64748b" text-anchor="middle">linear, no bias</text>
<line x1="1106" y1="208.0" x2="1124" y2="208.0" stroke="#1e293b" stroke-width="1.5" stroke-linecap="round" marker-end="url(#arrow0)"/>
<rect x="1128" y="154" width="140" height="108" rx="10" fill="#ffffff" stroke="#cbd5e1" stroke-width="1.5"/>
<text x="1198" y="178" font-size="14" fill="#1e293b" font-weight="700" text-anchor="middle">Softmax</text>
<rect x="1151" y="216" width="18" height="20" rx="3" fill="#94a3b8"/>
<rect x="1176" y="192" width="18" height="44" rx="3" fill="#60a5fa"/>
<rect x="1201" y="206" width="18" height="30" rx="3" fill="#a78bfa"/>
<rect x="1226" y="222" width="18" height="14" rx="3" fill="#f59e0b"/>
<line x1="1146" y1="236" x2="1250" y2="236" stroke="#cbd5e1" stroke-width="1" stroke-linecap="round"/>
<text x="1198" y="254" font-size="11.5" fill="#64748b" text-anchor="middle">weights sum to 1</text>
<line x1="1272" y1="208.0" x2="1290" y2="208.0" stroke="#1e293b" stroke-width="1.5" stroke-linecap="round" marker-end="url(#arrow0)"/>
<rect x="1294" y="154" width="140" height="108" rx="10" fill="#ffffff" stroke="#cbd5e1" stroke-width="1.5"/>
<text x="1364" y="178" font-size="14" fill="#1e293b" font-weight="700" text-anchor="middle">Weighted sum</text>
<rect x="1330" y="200" width="12" height="12" rx="2" fill="#5eead4"/>
<rect x="1344" y="200" width="12" height="12" rx="2" fill="#2dd4bf"/>
<rect x="1358" y="200" width="12" height="12" rx="2" fill="#14b8a6"/>
<rect x="1372" y="200" width="12" height="12" rx="2" fill="#0d9488"/>
<rect x="1386" y="200" width="12" height="12" rx="2" fill="#0f766e"/>
<text x="1364" y="242" font-size="11.5" fill="#64748b" text-anchor="middle">one vector per</text>
<text x="1364" y="256" font-size="11.5" fill="#64748b" text-anchor="middle">model and layer</text>
<line x1="1438" y1="208.0" x2="1456" y2="208.0" stroke="#1e293b" stroke-width="1.5" stroke-linecap="round" marker-end="url(#arrow0)"/>
<rect x="1460" y="154" width="164" height="108" rx="10" fill="#1e293b"/>
<text x="1542" y="186" font-size="13.5" fill="#ffffff" font-weight="700" text-anchor="middle">Concatenate all 14</text>
<text x="1542" y="214" font-size="16" fill="#99f6e4" font-weight="700" text-anchor="middle">Linear to 1024</text>
<text x="1542" y="240" font-size="11.5" fill="#cbd5e1" text-anchor="middle">about 79k inputs</text>
<text x="826" y="288" font-size="12" fill="#64748b">The weights choose among the 4 positions inside each model and layer. This is not attention over tokens.</text>
<path d="M1542,300 V328" stroke="#1e293b" stroke-width="2" fill="none" stroke-linejoin="round" stroke-linecap="round"/>
<line x1="418" y1="328" x2="1542" y2="328" stroke="#1e293b" stroke-width="2" stroke-linecap="round"/>
<text x="860" y="319" font-size="13" fill="#64748b" text-anchor="middle">1024 features, shared by both classifiers</text>
<line x1="418" y1="328" x2="418" y2="406" stroke="#1e293b" stroke-width="2" stroke-linecap="round" marker-end="url(#arrow0)"/>
<line x1="1290" y1="328" x2="1290" y2="406" stroke="#1e293b" stroke-width="2" stroke-linecap="round" marker-end="url(#arrow0)"/>
<rect x="36" y="352" width="764" height="578" rx="16" fill="#f8fafc" stroke="#1d4ed8" stroke-width="2"/>
<rect x="830" y="352" width="814" height="578" rx="16" fill="#f8fafc" stroke="#0f766e" stroke-width="2"/>
<text x="60" y="390" font-size="24" fill="#1d4ed8" font-weight="700">STM</text>
<text x="60" y="414" font-size="14" fill="#64748b">single task: suicide only</text>
<text x="854" y="390" font-size="24" fill="#0f766e" font-weight="700">MTM</text>
<text x="854" y="414" font-size="14" fill="#64748b">multi-task: clinical stages, then suicide</text>
<rect x="308" y="410" width="220" height="40" rx="10" fill="#1e293b"/>
<text x="418" y="436" font-size="15" fill="#ffffff" font-weight="700" text-anchor="middle">1024 features</text>
<line x1="318" y1="450" x2="250" y2="500" stroke="#bfdbfe" stroke-width="0.7" stroke-linecap="round"/>
<line x1="318" y1="450" x2="292" y2="500" stroke="#bfdbfe" stroke-width="0.7" stroke-linecap="round"/>
<line x1="318" y1="450" x2="334" y2="500" stroke="#bfdbfe" stroke-width="0.7" stroke-linecap="round"/>
<line x1="318" y1="450" x2="376" y2="500" stroke="#bfdbfe" stroke-width="0.7" stroke-linecap="round"/>
<line x1="318" y1="450" x2="418" y2="500" stroke="#bfdbfe" stroke-width="0.7" stroke-linecap="round"/>
<line x1="318" y1="450" x2="460" y2="500" stroke="#bfdbfe" stroke-width="0.7" stroke-linecap="round"/>
<line x1="318" y1="450" x2="502" y2="500" stroke="#bfdbfe" stroke-width="0.7" stroke-linecap="round"/>
<line x1="318" y1="450" x2="544" y2="500" stroke="#bfdbfe" stroke-width="0.7" stroke-linecap="round"/>
<line x1="318" y1="450" x2="586" y2="500" stroke="#bfdbfe" stroke-width="0.7" stroke-linecap="round"/>
<line x1="343" y1="450" x2="250" y2="500" stroke="#bfdbfe" stroke-width="0.7" stroke-linecap="round"/>
<line x1="343" y1="450" x2="292" y2="500" stroke="#bfdbfe" stroke-width="0.7" stroke-linecap="round"/>
<line x1="343" y1="450" x2="334" y2="500" stroke="#bfdbfe" stroke-width="0.7" stroke-linecap="round"/>
<line x1="343" y1="450" x2="376" y2="500" stroke="#bfdbfe" stroke-width="0.7" stroke-linecap="round"/>
<line x1="343" y1="450" x2="418" y2="500" stroke="#bfdbfe" stroke-width="0.7" stroke-linecap="round"/>
<line x1="343" y1="450" x2="460" y2="500" stroke="#bfdbfe" stroke-width="0.7" stroke-linecap="round"/>
<line x1="343" y1="450" x2="502" y2="500" stroke="#bfdbfe" stroke-width="0.7" stroke-linecap="round"/>
<line x1="343" y1="450" x2="544" y2="500" stroke="#bfdbfe" stroke-width="0.7" stroke-linecap="round"/>
<line x1="343" y1="450" x2="586" y2="500" stroke="#bfdbfe" stroke-width="0.7" stroke-linecap="round"/>
<line x1="368" y1="450" x2="250" y2="500" stroke="#bfdbfe" stroke-width="0.7" stroke-linecap="round"/>
<line x1="368" y1="450" x2="292" y2="500" stroke="#bfdbfe" stroke-width="0.7" stroke-linecap="round"/>
<line x1="368" y1="450" x2="334" y2="500" stroke="#bfdbfe" stroke-width="0.7" stroke-linecap="round"/>
<line x1="368" y1="450" x2="376" y2="500" stroke="#bfdbfe" stroke-width="0.7" stroke-linecap="round"/>
<line x1="368" y1="450" x2="418" y2="500" stroke="#bfdbfe" stroke-width="0.7" stroke-linecap="round"/>
<line x1="368" y1="450" x2="460" y2="500" stroke="#bfdbfe" stroke-width="0.7" stroke-linecap="round"/>
<line x1="368" y1="450" x2="502" y2="500" stroke="#bfdbfe" stroke-width="0.7" stroke-linecap="round"/>
<line x1="368" y1="450" x2="544" y2="500" stroke="#bfdbfe" stroke-width="0.7" stroke-linecap="round"/>
<line x1="368" y1="450" x2="586" y2="500" stroke="#bfdbfe" stroke-width="0.7" stroke-linecap="round"/>
<line x1="393" y1="450" x2="250" y2="500" stroke="#bfdbfe" stroke-width="0.7" stroke-linecap="round"/>
<line x1="393" y1="450" x2="292" y2="500" stroke="#bfdbfe" stroke-width="0.7" stroke-linecap="round"/>
<line x1="393" y1="450" x2="334" y2="500" stroke="#bfdbfe" stroke-width="0.7" stroke-linecap="round"/>
<line x1="393" y1="450" x2="376" y2="500" stroke="#bfdbfe" stroke-width="0.7" stroke-linecap="round"/>
<line x1="393" y1="450" x2="418" y2="500" stroke="#bfdbfe" stroke-width="0.7" stroke-linecap="round"/>
<line x1="393" y1="450" x2="460" y2="500" stroke="#bfdbfe" stroke-width="0.7" stroke-linecap="round"/>
<line x1="393" y1="450" x2="502" y2="500" stroke="#bfdbfe" stroke-width="0.7" stroke-linecap="round"/>
<line x1="393" y1="450" x2="544" y2="500" stroke="#bfdbfe" stroke-width="0.7" stroke-linecap="round"/>
<line x1="393" y1="450" x2="586" y2="500" stroke="#bfdbfe" stroke-width="0.7" stroke-linecap="round"/>
<line x1="418" y1="450" x2="250" y2="500" stroke="#bfdbfe" stroke-width="0.7" stroke-linecap="round"/>
<line x1="418" y1="450" x2="292" y2="500" stroke="#bfdbfe" stroke-width="0.7" stroke-linecap="round"/>
<line x1="418" y1="450" x2="334" y2="500" stroke="#bfdbfe" stroke-width="0.7" stroke-linecap="round"/>
<line x1="418" y1="450" x2="376" y2="500" stroke="#bfdbfe" stroke-width="0.7" stroke-linecap="round"/>
<line x1="418" y1="450" x2="418" y2="500" stroke="#bfdbfe" stroke-width="0.7" stroke-linecap="round"/>
<line x1="418" y1="450" x2="460" y2="500" stroke="#bfdbfe" stroke-width="0.7" stroke-linecap="round"/>
<line x1="418" y1="450" x2="502" y2="500" stroke="#bfdbfe" stroke-width="0.7" stroke-linecap="round"/>
<line x1="418" y1="450" x2="544" y2="500" stroke="#bfdbfe" stroke-width="0.7" stroke-linecap="round"/>
<line x1="418" y1="450" x2="586" y2="500" stroke="#bfdbfe" stroke-width="0.7" stroke-linecap="round"/>
<line x1="443" y1="450" x2="250" y2="500" stroke="#bfdbfe" stroke-width="0.7" stroke-linecap="round"/>
<line x1="443" y1="450" x2="292" y2="500" stroke="#bfdbfe" stroke-width="0.7" stroke-linecap="round"/>
<line x1="443" y1="450" x2="334" y2="500" stroke="#bfdbfe" stroke-width="0.7" stroke-linecap="round"/>
<line x1="443" y1="450" x2="376" y2="500" stroke="#bfdbfe" stroke-width="0.7" stroke-linecap="round"/>
<line x1="443" y1="450" x2="418" y2="500" stroke="#bfdbfe" stroke-width="0.7" stroke-linecap="round"/>
<line x1="443" y1="450" x2="460" y2="500" stroke="#bfdbfe" stroke-width="0.7" stroke-linecap="round"/>
<line x1="443" y1="450" x2="502" y2="500" stroke="#bfdbfe" stroke-width="0.7" stroke-linecap="round"/>
<line x1="443" y1="450" x2="544" y2="500" stroke="#bfdbfe" stroke-width="0.7" stroke-linecap="round"/>
<line x1="443" y1="450" x2="586" y2="500" stroke="#bfdbfe" stroke-width="0.7" stroke-linecap="round"/>
<line x1="468" y1="450" x2="250" y2="500" stroke="#bfdbfe" stroke-width="0.7" stroke-linecap="round"/>
<line x1="468" y1="450" x2="292" y2="500" stroke="#bfdbfe" stroke-width="0.7" stroke-linecap="round"/>
<line x1="468" y1="450" x2="334" y2="500" stroke="#bfdbfe" stroke-width="0.7" stroke-linecap="round"/>
<line x1="468" y1="450" x2="376" y2="500" stroke="#bfdbfe" stroke-width="0.7" stroke-linecap="round"/>
<line x1="468" y1="450" x2="418" y2="500" stroke="#bfdbfe" stroke-width="0.7" stroke-linecap="round"/>
<line x1="468" y1="450" x2="460" y2="500" stroke="#bfdbfe" stroke-width="0.7" stroke-linecap="round"/>
<line x1="468" y1="450" x2="502" y2="500" stroke="#bfdbfe" stroke-width="0.7" stroke-linecap="round"/>
<line x1="468" y1="450" x2="544" y2="500" stroke="#bfdbfe" stroke-width="0.7" stroke-linecap="round"/>
<line x1="468" y1="450" x2="586" y2="500" stroke="#bfdbfe" stroke-width="0.7" stroke-linecap="round"/>
<line x1="493" y1="450" x2="250" y2="500" stroke="#bfdbfe" stroke-width="0.7" stroke-linecap="round"/>
<line x1="493" y1="450" x2="292" y2="500" stroke="#bfdbfe" stroke-width="0.7" stroke-linecap="round"/>
<line x1="493" y1="450" x2="334" y2="500" stroke="#bfdbfe" stroke-width="0.7" stroke-linecap="round"/>
<line x1="493" y1="450" x2="376" y2="500" stroke="#bfdbfe" stroke-width="0.7" stroke-linecap="round"/>
<line x1="493" y1="450" x2="418" y2="500" stroke="#bfdbfe" stroke-width="0.7" stroke-linecap="round"/>
<line x1="493" y1="450" x2="460" y2="500" stroke="#bfdbfe" stroke-width="0.7" stroke-linecap="round"/>
<line x1="493" y1="450" x2="502" y2="500" stroke="#bfdbfe" stroke-width="0.7" stroke-linecap="round"/>
<line x1="493" y1="450" x2="544" y2="500" stroke="#bfdbfe" stroke-width="0.7" stroke-linecap="round"/>
<line x1="493" y1="450" x2="586" y2="500" stroke="#bfdbfe" stroke-width="0.7" stroke-linecap="round"/>
<line x1="518" y1="450" x2="250" y2="500" stroke="#bfdbfe" stroke-width="0.7" stroke-linecap="round"/>
<line x1="518" y1="450" x2="292" y2="500" stroke="#bfdbfe" stroke-width="0.7" stroke-linecap="round"/>
<line x1="518" y1="450" x2="334" y2="500" stroke="#bfdbfe" stroke-width="0.7" stroke-linecap="round"/>
<line x1="518" y1="450" x2="376" y2="500" stroke="#bfdbfe" stroke-width="0.7" stroke-linecap="round"/>
<line x1="518" y1="450" x2="418" y2="500" stroke="#bfdbfe" stroke-width="0.7" stroke-linecap="round"/>
<line x1="518" y1="450" x2="460" y2="500" stroke="#bfdbfe" stroke-width="0.7" stroke-linecap="round"/>
<line x1="518" y1="450" x2="502" y2="500" stroke="#bfdbfe" stroke-width="0.7" stroke-linecap="round"/>
<line x1="518" y1="450" x2="544" y2="500" stroke="#bfdbfe" stroke-width="0.7" stroke-linecap="round"/>
<line x1="518" y1="450" x2="586" y2="500" stroke="#bfdbfe" stroke-width="0.7" stroke-linecap="round"/>
<line x1="250" y1="500" x2="250" y2="576" stroke="#cbd5e1" stroke-width="0.6" stroke-linecap="round" opacity="0.8"/>
<line x1="250" y1="500" x2="292" y2="576" stroke="#cbd5e1" stroke-width="0.6" stroke-linecap="round" opacity="0.8"/>
<line x1="250" y1="500" x2="334" y2="576" stroke="#cbd5e1" stroke-width="0.6" stroke-linecap="round" opacity="0.8"/>
<line x1="250" y1="500" x2="376" y2="576" stroke="#cbd5e1" stroke-width="0.6" stroke-linecap="round" opacity="0.8"/>
<line x1="250" y1="500" x2="418" y2="576" stroke="#cbd5e1" stroke-width="0.6" stroke-linecap="round" opacity="0.8"/>
<line x1="250" y1="500" x2="460" y2="576" stroke="#cbd5e1" stroke-width="0.6" stroke-linecap="round" opacity="0.8"/>
<line x1="250" y1="500" x2="502" y2="576" stroke="#cbd5e1" stroke-width="0.6" stroke-linecap="round" opacity="0.8"/>
<line x1="250" y1="500" x2="544" y2="576" stroke="#cbd5e1" stroke-width="0.6" stroke-linecap="round" opacity="0.8"/>
<line x1="250" y1="500" x2="586" y2="576" stroke="#cbd5e1" stroke-width="0.6" stroke-linecap="round" opacity="0.8"/>
<line x1="292" y1="500" x2="250" y2="576" stroke="#cbd5e1" stroke-width="0.6" stroke-linecap="round" opacity="0.8"/>
<line x1="292" y1="500" x2="292" y2="576" stroke="#cbd5e1" stroke-width="0.6" stroke-linecap="round" opacity="0.8"/>
<line x1="292" y1="500" x2="334" y2="576" stroke="#cbd5e1" stroke-width="0.6" stroke-linecap="round" opacity="0.8"/>
<line x1="292" y1="500" x2="376" y2="576" stroke="#cbd5e1" stroke-width="0.6" stroke-linecap="round" opacity="0.8"/>
<line x1="292" y1="500" x2="418" y2="576" stroke="#cbd5e1" stroke-width="0.6" stroke-linecap="round" opacity="0.8"/>
<line x1="292" y1="500" x2="460" y2="576" stroke="#cbd5e1" stroke-width="0.6" stroke-linecap="round" opacity="0.8"/>
<line x1="292" y1="500" x2="502" y2="576" stroke="#cbd5e1" stroke-width="0.6" stroke-linecap="round" opacity="0.8"/>
<line x1="292" y1="500" x2="544" y2="576" stroke="#cbd5e1" stroke-width="0.6" stroke-linecap="round" opacity="0.8"/>
<line x1="292" y1="500" x2="586" y2="576" stroke="#cbd5e1" stroke-width="0.6" stroke-linecap="round" opacity="0.8"/>
<line x1="334" y1="500" x2="250" y2="576" stroke="#cbd5e1" stroke-width="0.6" stroke-linecap="round" opacity="0.8"/>
<line x1="334" y1="500" x2="292" y2="576" stroke="#cbd5e1" stroke-width="0.6" stroke-linecap="round" opacity="0.8"/>
<line x1="334" y1="500" x2="334" y2="576" stroke="#cbd5e1" stroke-width="0.6" stroke-linecap="round" opacity="0.8"/>
<line x1="334" y1="500" x2="376" y2="576" stroke="#cbd5e1" stroke-width="0.6" stroke-linecap="round" opacity="0.8"/>
<line x1="334" y1="500" x2="418" y2="576" stroke="#cbd5e1" stroke-width="0.6" stroke-linecap="round" opacity="0.8"/>
<line x1="334" y1="500" x2="460" y2="576" stroke="#cbd5e1" stroke-width="0.6" stroke-linecap="round" opacity="0.8"/>
<line x1="334" y1="500" x2="502" y2="576" stroke="#cbd5e1" stroke-width="0.6" stroke-linecap="round" opacity="0.8"/>
<line x1="334" y1="500" x2="544" y2="576" stroke="#cbd5e1" stroke-width="0.6" stroke-linecap="round" opacity="0.8"/>
<line x1="334" y1="500" x2="586" y2="576" stroke="#cbd5e1" stroke-width="0.6" stroke-linecap="round" opacity="0.8"/>
<line x1="376" y1="500" x2="250" y2="576" stroke="#cbd5e1" stroke-width="0.6" stroke-linecap="round" opacity="0.8"/>
<line x1="376" y1="500" x2="292" y2="576" stroke="#cbd5e1" stroke-width="0.6" stroke-linecap="round" opacity="0.8"/>
<line x1="376" y1="500" x2="334" y2="576" stroke="#cbd5e1" stroke-width="0.6" stroke-linecap="round" opacity="0.8"/>
<line x1="376" y1="500" x2="376" y2="576" stroke="#cbd5e1" stroke-width="0.6" stroke-linecap="round" opacity="0.8"/>
<line x1="376" y1="500" x2="418" y2="576" stroke="#cbd5e1" stroke-width="0.6" stroke-linecap="round" opacity="0.8"/>
<line x1="376" y1="500" x2="460" y2="576" stroke="#cbd5e1" stroke-width="0.6" stroke-linecap="round" opacity="0.8"/>
<line x1="376" y1="500" x2="502" y2="576" stroke="#cbd5e1" stroke-width="0.6" stroke-linecap="round" opacity="0.8"/>
<line x1="376" y1="500" x2="544" y2="576" stroke="#cbd5e1" stroke-width="0.6" stroke-linecap="round" opacity="0.8"/>
<line x1="376" y1="500" x2="586" y2="576" stroke="#cbd5e1" stroke-width="0.6" stroke-linecap="round" opacity="0.8"/>
<line x1="418" y1="500" x2="250" y2="576" stroke="#cbd5e1" stroke-width="0.6" stroke-linecap="round" opacity="0.8"/>
<line x1="418" y1="500" x2="292" y2="576" stroke="#cbd5e1" stroke-width="0.6" stroke-linecap="round" opacity="0.8"/>
<line x1="418" y1="500" x2="334" y2="576" stroke="#cbd5e1" stroke-width="0.6" stroke-linecap="round" opacity="0.8"/>
<line x1="418" y1="500" x2="376" y2="576" stroke="#cbd5e1" stroke-width="0.6" stroke-linecap="round" opacity="0.8"/>
<line x1="418" y1="500" x2="418" y2="576" stroke="#cbd5e1" stroke-width="0.6" stroke-linecap="round" opacity="0.8"/>
<line x1="418" y1="500" x2="460" y2="576" stroke="#cbd5e1" stroke-width="0.6" stroke-linecap="round" opacity="0.8"/>
<line x1="418" y1="500" x2="502" y2="576" stroke="#cbd5e1" stroke-width="0.6" stroke-linecap="round" opacity="0.8"/>
<line x1="418" y1="500" x2="544" y2="576" stroke="#cbd5e1" stroke-width="0.6" stroke-linecap="round" opacity="0.8"/>
<line x1="418" y1="500" x2="586" y2="576" stroke="#cbd5e1" stroke-width="0.6" stroke-linecap="round" opacity="0.8"/>
<line x1="460" y1="500" x2="250" y2="576" stroke="#cbd5e1" stroke-width="0.6" stroke-linecap="round" opacity="0.8"/>
<line x1="460" y1="500" x2="292" y2="576" stroke="#cbd5e1" stroke-width="0.6" stroke-linecap="round" opacity="0.8"/>
<line x1="460" y1="500" x2="334" y2="576" stroke="#cbd5e1" stroke-width="0.6" stroke-linecap="round" opacity="0.8"/>
<line x1="460" y1="500" x2="376" y2="576" stroke="#cbd5e1" stroke-width="0.6" stroke-linecap="round" opacity="0.8"/>
<line x1="460" y1="500" x2="418" y2="576" stroke="#cbd5e1" stroke-width="0.6" stroke-linecap="round" opacity="0.8"/>
<line x1="460" y1="500" x2="460" y2="576" stroke="#cbd5e1" stroke-width="0.6" stroke-linecap="round" opacity="0.8"/>
<line x1="460" y1="500" x2="502" y2="576" stroke="#cbd5e1" stroke-width="0.6" stroke-linecap="round" opacity="0.8"/>
<line x1="460" y1="500" x2="544" y2="576" stroke="#cbd5e1" stroke-width="0.6" stroke-linecap="round" opacity="0.8"/>
<line x1="460" y1="500" x2="586" y2="576" stroke="#cbd5e1" stroke-width="0.6" stroke-linecap="round" opacity="0.8"/>
<line x1="502" y1="500" x2="250" y2="576" stroke="#cbd5e1" stroke-width="0.6" stroke-linecap="round" opacity="0.8"/>
<line x1="502" y1="500" x2="292" y2="576" stroke="#cbd5e1" stroke-width="0.6" stroke-linecap="round" opacity="0.8"/>
<line x1="502" y1="500" x2="334" y2="576" stroke="#cbd5e1" stroke-width="0.6" stroke-linecap="round" opacity="0.8"/>
<line x1="502" y1="500" x2="376" y2="576" stroke="#cbd5e1" stroke-width="0.6" stroke-linecap="round" opacity="0.8"/>
<line x1="502" y1="500" x2="418" y2="576" stroke="#cbd5e1" stroke-width="0.6" stroke-linecap="round" opacity="0.8"/>
<line x1="502" y1="500" x2="460" y2="576" stroke="#cbd5e1" stroke-width="0.6" stroke-linecap="round" opacity="0.8"/>
<line x1="502" y1="500" x2="502" y2="576" stroke="#cbd5e1" stroke-width="0.6" stroke-linecap="round" opacity="0.8"/>
<line x1="502" y1="500" x2="544" y2="576" stroke="#cbd5e1" stroke-width="0.6" stroke-linecap="round" opacity="0.8"/>
<line x1="502" y1="500" x2="586" y2="576" stroke="#cbd5e1" stroke-width="0.6" stroke-linecap="round" opacity="0.8"/>
<line x1="544" y1="500" x2="250" y2="576" stroke="#cbd5e1" stroke-width="0.6" stroke-linecap="round" opacity="0.8"/>
<line x1="544" y1="500" x2="292" y2="576" stroke="#cbd5e1" stroke-width="0.6" stroke-linecap="round" opacity="0.8"/>
<line x1="544" y1="500" x2="334" y2="576" stroke="#cbd5e1" stroke-width="0.6" stroke-linecap="round" opacity="0.8"/>
<line x1="544" y1="500" x2="376" y2="576" stroke="#cbd5e1" stroke-width="0.6" stroke-linecap="round" opacity="0.8"/>
<line x1="544" y1="500" x2="418" y2="576" stroke="#cbd5e1" stroke-width="0.6" stroke-linecap="round" opacity="0.8"/>
<line x1="544" y1="500" x2="460" y2="576" stroke="#cbd5e1" stroke-width="0.6" stroke-linecap="round" opacity="0.8"/>
<line x1="544" y1="500" x2="502" y2="576" stroke="#cbd5e1" stroke-width="0.6" stroke-linecap="round" opacity="0.8"/>
<line x1="544" y1="500" x2="544" y2="576" stroke="#cbd5e1" stroke-width="0.6" stroke-linecap="round" opacity="0.8"/>
<line x1="544" y1="500" x2="586" y2="576" stroke="#cbd5e1" stroke-width="0.6" stroke-linecap="round" opacity="0.8"/>
<line x1="586" y1="500" x2="250" y2="576" stroke="#cbd5e1" stroke-width="0.6" stroke-linecap="round" opacity="0.8"/>
<line x1="586" y1="500" x2="292" y2="576" stroke="#cbd5e1" stroke-width="0.6" stroke-linecap="round" opacity="0.8"/>
<line x1="586" y1="500" x2="334" y2="576" stroke="#cbd5e1" stroke-width="0.6" stroke-linecap="round" opacity="0.8"/>
<line x1="586" y1="500" x2="376" y2="576" stroke="#cbd5e1" stroke-width="0.6" stroke-linecap="round" opacity="0.8"/>
<line x1="586" y1="500" x2="418" y2="576" stroke="#cbd5e1" stroke-width="0.6" stroke-linecap="round" opacity="0.8"/>
<line x1="586" y1="500" x2="460" y2="576" stroke="#cbd5e1" stroke-width="0.6" stroke-linecap="round" opacity="0.8"/>
<line x1="586" y1="500" x2="502" y2="576" stroke="#cbd5e1" stroke-width="0.6" stroke-linecap="round" opacity="0.8"/>
<line x1="586" y1="500" x2="544" y2="576" stroke="#cbd5e1" stroke-width="0.6" stroke-linecap="round" opacity="0.8"/>
<line x1="586" y1="500" x2="586" y2="576" stroke="#cbd5e1" stroke-width="0.6" stroke-linecap="round" opacity="0.8"/>
<line x1="250" y1="576" x2="250" y2="652" stroke="#cbd5e1" stroke-width="0.6" stroke-linecap="round" opacity="0.8"/>
<line x1="250" y1="576" x2="292" y2="652" stroke="#cbd5e1" stroke-width="0.6" stroke-linecap="round" opacity="0.8"/>
<line x1="250" y1="576" x2="334" y2="652" stroke="#cbd5e1" stroke-width="0.6" stroke-linecap="round" opacity="0.8"/>
<line x1="250" y1="576" x2="376" y2="652" stroke="#cbd5e1" stroke-width="0.6" stroke-linecap="round" opacity="0.8"/>
<line x1="250" y1="576" x2="418" y2="652" stroke="#cbd5e1" stroke-width="0.6" stroke-linecap="round" opacity="0.8"/>
<line x1="250" y1="576" x2="460" y2="652" stroke="#cbd5e1" stroke-width="0.6" stroke-linecap="round" opacity="0.8"/>
<line x1="250" y1="576" x2="502" y2="652" stroke="#cbd5e1" stroke-width="0.6" stroke-linecap="round" opacity="0.8"/>
<line x1="250" y1="576" x2="544" y2="652" stroke="#cbd5e1" stroke-width="0.6" stroke-linecap="round" opacity="0.8"/>
<line x1="250" y1="576" x2="586" y2="652" stroke="#cbd5e1" stroke-width="0.6" stroke-linecap="round" opacity="0.8"/>
<line x1="292" y1="576" x2="250" y2="652" stroke="#cbd5e1" stroke-width="0.6" stroke-linecap="round" opacity="0.8"/>
<line x1="292" y1="576" x2="292" y2="652" stroke="#cbd5e1" stroke-width="0.6" stroke-linecap="round" opacity="0.8"/>
<line x1="292" y1="576" x2="334" y2="652" stroke="#cbd5e1" stroke-width="0.6" stroke-linecap="round" opacity="0.8"/>
<line x1="292" y1="576" x2="376" y2="652" stroke="#cbd5e1" stroke-width="0.6" stroke-linecap="round" opacity="0.8"/>
<line x1="292" y1="576" x2="418" y2="652" stroke="#cbd5e1" stroke-width="0.6" stroke-linecap="round" opacity="0.8"/>
<line x1="292" y1="576" x2="460" y2="652" stroke="#cbd5e1" stroke-width="0.6" stroke-linecap="round" opacity="0.8"/>
<line x1="292" y1="576" x2="502" y2="652" stroke="#cbd5e1" stroke-width="0.6" stroke-linecap="round" opacity="0.8"/>
<line x1="292" y1="576" x2="544" y2="652" stroke="#cbd5e1" stroke-width="0.6" stroke-linecap="round" opacity="0.8"/>
<line x1="292" y1="576" x2="586" y2="652" stroke="#cbd5e1" stroke-width="0.6" stroke-linecap="round" opacity="0.8"/>
<line x1="334" y1="576" x2="250" y2="652" stroke="#cbd5e1" stroke-width="0.6" stroke-linecap="round" opacity="0.8"/>
<line x1="334" y1="576" x2="292" y2="652" stroke="#cbd5e1" stroke-width="0.6" stroke-linecap="round" opacity="0.8"/>
<line x1="334" y1="576" x2="334" y2="652" stroke="#cbd5e1" stroke-width="0.6" stroke-linecap="round" opacity="0.8"/>
<line x1="334" y1="576" x2="376" y2="652" stroke="#cbd5e1" stroke-width="0.6" stroke-linecap="round" opacity="0.8"/>
<line x1="334" y1="576" x2="418" y2="652" stroke="#cbd5e1" stroke-width="0.6" stroke-linecap="round" opacity="0.8"/>
<line x1="334" y1="576" x2="460" y2="652" stroke="#cbd5e1" stroke-width="0.6" stroke-linecap="round" opacity="0.8"/>
<line x1="334" y1="576" x2="502" y2="652" stroke="#cbd5e1" stroke-width="0.6" stroke-linecap="round" opacity="0.8"/>
<line x1="334" y1="576" x2="544" y2="652" stroke="#cbd5e1" stroke-width="0.6" stroke-linecap="round" opacity="0.8"/>
<line x1="334" y1="576" x2="586" y2="652" stroke="#cbd5e1" stroke-width="0.6" stroke-linecap="round" opacity="0.8"/>
<line x1="376" y1="576" x2="250" y2="652" stroke="#cbd5e1" stroke-width="0.6" stroke-linecap="round" opacity="0.8"/>
<line x1="376" y1="576" x2="292" y2="652" stroke="#cbd5e1" stroke-width="0.6" stroke-linecap="round" opacity="0.8"/>
<line x1="376" y1="576" x2="334" y2="652" stroke="#cbd5e1" stroke-width="0.6" stroke-linecap="round" opacity="0.8"/>
<line x1="376" y1="576" x2="376" y2="652" stroke="#cbd5e1" stroke-width="0.6" stroke-linecap="round" opacity="0.8"/>
<line x1="376" y1="576" x2="418" y2="652" stroke="#cbd5e1" stroke-width="0.6" stroke-linecap="round" opacity="0.8"/>
<line x1="376" y1="576" x2="460" y2="652" stroke="#cbd5e1" stroke-width="0.6" stroke-linecap="round" opacity="0.8"/>
<line x1="376" y1="576" x2="502" y2="652" stroke="#cbd5e1" stroke-width="0.6" stroke-linecap="round" opacity="0.8"/>
<line x1="376" y1="576" x2="544" y2="652" stroke="#cbd5e1" stroke-width="0.6" stroke-linecap="round" opacity="0.8"/>
<line x1="376" y1="576" x2="586" y2="652" stroke="#cbd5e1" stroke-width="0.6" stroke-linecap="round" opacity="0.8"/>
<line x1="418" y1="576" x2="250" y2="652" stroke="#cbd5e1" stroke-width="0.6" stroke-linecap="round" opacity="0.8"/>
<line x1="418" y1="576" x2="292" y2="652" stroke="#cbd5e1" stroke-width="0.6" stroke-linecap="round" opacity="0.8"/>
<line x1="418" y1="576" x2="334" y2="652" stroke="#cbd5e1" stroke-width="0.6" stroke-linecap="round" opacity="0.8"/>
<line x1="418" y1="576" x2="376" y2="652" stroke="#cbd5e1" stroke-width="0.6" stroke-linecap="round" opacity="0.8"/>
<line x1="418" y1="576" x2="418" y2="652" stroke="#cbd5e1" stroke-width="0.6" stroke-linecap="round" opacity="0.8"/>
<line x1="418" y1="576" x2="460" y2="652" stroke="#cbd5e1" stroke-width="0.6" stroke-linecap="round" opacity="0.8"/>
<line x1="418" y1="576" x2="502" y2="652" stroke="#cbd5e1" stroke-width="0.6" stroke-linecap="round" opacity="0.8"/>
<line x1="418" y1="576" x2="544" y2="652" stroke="#cbd5e1" stroke-width="0.6" stroke-linecap="round" opacity="0.8"/>
<line x1="418" y1="576" x2="586" y2="652" stroke="#cbd5e1" stroke-width="0.6" stroke-linecap="round" opacity="0.8"/>
<line x1="460" y1="576" x2="250" y2="652" stroke="#cbd5e1" stroke-width="0.6" stroke-linecap="round" opacity="0.8"/>
<line x1="460" y1="576" x2="292" y2="652" stroke="#cbd5e1" stroke-width="0.6" stroke-linecap="round" opacity="0.8"/>
<line x1="460" y1="576" x2="334" y2="652" stroke="#cbd5e1" stroke-width="0.6" stroke-linecap="round" opacity="0.8"/>
<line x1="460" y1="576" x2="376" y2="652" stroke="#cbd5e1" stroke-width="0.6" stroke-linecap="round" opacity="0.8"/>
<line x1="460" y1="576" x2="418" y2="652" stroke="#cbd5e1" stroke-width="0.6" stroke-linecap="round" opacity="0.8"/>
<line x1="460" y1="576" x2="460" y2="652" stroke="#cbd5e1" stroke-width="0.6" stroke-linecap="round" opacity="0.8"/>
<line x1="460" y1="576" x2="502" y2="652" stroke="#cbd5e1" stroke-width="0.6" stroke-linecap="round" opacity="0.8"/>
<line x1="460" y1="576" x2="544" y2="652" stroke="#cbd5e1" stroke-width="0.6" stroke-linecap="round" opacity="0.8"/>
<line x1="460" y1="576" x2="586" y2="652" stroke="#cbd5e1" stroke-width="0.6" stroke-linecap="round" opacity="0.8"/>
<line x1="502" y1="576" x2="250" y2="652" stroke="#cbd5e1" stroke-width="0.6" stroke-linecap="round" opacity="0.8"/>
<line x1="502" y1="576" x2="292" y2="652" stroke="#cbd5e1" stroke-width="0.6" stroke-linecap="round" opacity="0.8"/>
<line x1="502" y1="576" x2="334" y2="652" stroke="#cbd5e1" stroke-width="0.6" stroke-linecap="round" opacity="0.8"/>
<line x1="502" y1="576" x2="376" y2="652" stroke="#cbd5e1" stroke-width="0.6" stroke-linecap="round" opacity="0.8"/>
<line x1="502" y1="576" x2="418" y2="652" stroke="#cbd5e1" stroke-width="0.6" stroke-linecap="round" opacity="0.8"/>
<line x1="502" y1="576" x2="460" y2="652" stroke="#cbd5e1" stroke-width="0.6" stroke-linecap="round" opacity="0.8"/>
<line x1="502" y1="576" x2="502" y2="652" stroke="#cbd5e1" stroke-width="0.6" stroke-linecap="round" opacity="0.8"/>
<line x1="502" y1="576" x2="544" y2="652" stroke="#cbd5e1" stroke-width="0.6" stroke-linecap="round" opacity="0.8"/>
<line x1="502" y1="576" x2="586" y2="652" stroke="#cbd5e1" stroke-width="0.6" stroke-linecap="round" opacity="0.8"/>
<line x1="544" y1="576" x2="250" y2="652" stroke="#cbd5e1" stroke-width="0.6" stroke-linecap="round" opacity="0.8"/>
<line x1="544" y1="576" x2="292" y2="652" stroke="#cbd5e1" stroke-width="0.6" stroke-linecap="round" opacity="0.8"/>
<line x1="544" y1="576" x2="334" y2="652" stroke="#cbd5e1" stroke-width="0.6" stroke-linecap="round" opacity="0.8"/>
<line x1="544" y1="576" x2="376" y2="652" stroke="#cbd5e1" stroke-width="0.6" stroke-linecap="round" opacity="0.8"/>
<line x1="544" y1="576" x2="418" y2="652" stroke="#cbd5e1" stroke-width="0.6" stroke-linecap="round" opacity="0.8"/>
<line x1="544" y1="576" x2="460" y2="652" stroke="#cbd5e1" stroke-width="0.6" stroke-linecap="round" opacity="0.8"/>
<line x1="544" y1="576" x2="502" y2="652" stroke="#cbd5e1" stroke-width="0.6" stroke-linecap="round" opacity="0.8"/>
<line x1="544" y1="576" x2="544" y2="652" stroke="#cbd5e1" stroke-width="0.6" stroke-linecap="round" opacity="0.8"/>
<line x1="544" y1="576" x2="586" y2="652" stroke="#cbd5e1" stroke-width="0.6" stroke-linecap="round" opacity="0.8"/>
<line x1="586" y1="576" x2="250" y2="652" stroke="#cbd5e1" stroke-width="0.6" stroke-linecap="round" opacity="0.8"/>
<line x1="586" y1="576" x2="292" y2="652" stroke="#cbd5e1" stroke-width="0.6" stroke-linecap="round" opacity="0.8"/>
<line x1="586" y1="576" x2="334" y2="652" stroke="#cbd5e1" stroke-width="0.6" stroke-linecap="round" opacity="0.8"/>
<line x1="586" y1="576" x2="376" y2="652" stroke="#cbd5e1" stroke-width="0.6" stroke-linecap="round" opacity="0.8"/>
<line x1="586" y1="576" x2="418" y2="652" stroke="#cbd5e1" stroke-width="0.6" stroke-linecap="round" opacity="0.8"/>
<line x1="586" y1="576" x2="460" y2="652" stroke="#cbd5e1" stroke-width="0.6" stroke-linecap="round" opacity="0.8"/>
<line x1="586" y1="576" x2="502" y2="652" stroke="#cbd5e1" stroke-width="0.6" stroke-linecap="round" opacity="0.8"/>
<line x1="586" y1="576" x2="544" y2="652" stroke="#cbd5e1" stroke-width="0.6" stroke-linecap="round" opacity="0.8"/>
<line x1="586" y1="576" x2="586" y2="652" stroke="#cbd5e1" stroke-width="0.6" stroke-linecap="round" opacity="0.8"/>
<line x1="250" y1="652" x2="418" y2="736" stroke="#cbd5e1" stroke-width="0.8" stroke-linecap="round"/>
<line x1="292" y1="652" x2="418" y2="736" stroke="#cbd5e1" stroke-width="0.8" stroke-linecap="round"/>
<line x1="334" y1="652" x2="418" y2="736" stroke="#cbd5e1" stroke-width="0.8" stroke-linecap="round"/>
<line x1="376" y1="652" x2="418" y2="736" stroke="#cbd5e1" stroke-width="0.8" stroke-linecap="round"/>
<line x1="418" y1="652" x2="418" y2="736" stroke="#cbd5e1" stroke-width="0.8" stroke-linecap="round"/>
<line x1="460" y1="652" x2="418" y2="736" stroke="#cbd5e1" stroke-width="0.8" stroke-linecap="round"/>
<line x1="502" y1="652" x2="418" y2="736" stroke="#cbd5e1" stroke-width="0.8" stroke-linecap="round"/>
<line x1="544" y1="652" x2="418" y2="736" stroke="#cbd5e1" stroke-width="0.8" stroke-linecap="round"/>
<line x1="586" y1="652" x2="418" y2="736" stroke="#cbd5e1" stroke-width="0.8" stroke-linecap="round"/>
<circle cx="250" cy="500" r="11" fill="#dbeafe" stroke="#1d4ed8" stroke-width="1.5"/>
<circle cx="292" cy="500" r="11" fill="#dbeafe" stroke="#1d4ed8" stroke-width="1.5"/>
<circle cx="334" cy="500" r="11" fill="#dbeafe" stroke="#1d4ed8" stroke-width="1.5"/>
<circle cx="376" cy="500" r="11" fill="#dbeafe" stroke="#1d4ed8" stroke-width="1.5"/>
<circle cx="418" cy="500" r="11" fill="#dbeafe" stroke="#1d4ed8" stroke-width="1.5"/>
<circle cx="460" cy="500" r="11" fill="#dbeafe" stroke="#1d4ed8" stroke-width="1.5"/>
<circle cx="502" cy="500" r="11" fill="#dbeafe" stroke="#1d4ed8" stroke-width="1.5"/>
<circle cx="544" cy="500" r="11" fill="#dbeafe" stroke="#1d4ed8" stroke-width="1.5"/>
<circle cx="586" cy="500" r="11" fill="#dbeafe" stroke="#1d4ed8" stroke-width="1.5"/>
<circle cx="250" cy="576" r="11" fill="#ffffff" stroke="#1d4ed8" stroke-width="1.5" stroke-dasharray="4 3"/>
<circle cx="292" cy="576" r="11" fill="#ffffff" stroke="#1d4ed8" stroke-width="1.5" stroke-dasharray="4 3"/>
<circle cx="334" cy="576" r="11" fill="#ffffff" stroke="#1d4ed8" stroke-width="1.5" stroke-dasharray="4 3"/>
<circle cx="376" cy="576" r="11" fill="#ffffff" stroke="#1d4ed8" stroke-width="1.5" stroke-dasharray="4 3"/>
<circle cx="418" cy="576" r="11" fill="#ffffff" stroke="#1d4ed8" stroke-width="1.5" stroke-dasharray="4 3"/>
<circle cx="460" cy="576" r="11" fill="#ffffff" stroke="#1d4ed8" stroke-width="1.5" stroke-dasharray="4 3"/>
<circle cx="502" cy="576" r="11" fill="#ffffff" stroke="#1d4ed8" stroke-width="1.5" stroke-dasharray="4 3"/>
<circle cx="544" cy="576" r="11" fill="#ffffff" stroke="#1d4ed8" stroke-width="1.5" stroke-dasharray="4 3"/>
<circle cx="586" cy="576" r="11" fill="#ffffff" stroke="#1d4ed8" stroke-width="1.5" stroke-dasharray="4 3"/>
<circle cx="250" cy="652" r="11" fill="#ffffff" stroke="#1d4ed8" stroke-width="1.5" stroke-dasharray="4 3"/>
<circle cx="292" cy="652" r="11" fill="#ffffff" stroke="#1d4ed8" stroke-width="1.5" stroke-dasharray="4 3"/>
<circle cx="334" cy="652" r="11" fill="#ffffff" stroke="#1d4ed8" stroke-width="1.5" stroke-dasharray="4 3"/>
<circle cx="376" cy="652" r="11" fill="#ffffff" stroke="#1d4ed8" stroke-width="1.5" stroke-dasharray="4 3"/>
<circle cx="418" cy="652" r="11" fill="#ffffff" stroke="#1d4ed8" stroke-width="1.5" stroke-dasharray="4 3"/>
<circle cx="460" cy="652" r="11" fill="#ffffff" stroke="#1d4ed8" stroke-width="1.5" stroke-dasharray="4 3"/>
<circle cx="502" cy="652" r="11" fill="#ffffff" stroke="#1d4ed8" stroke-width="1.5" stroke-dasharray="4 3"/>
<circle cx="544" cy="652" r="11" fill="#ffffff" stroke="#1d4ed8" stroke-width="1.5" stroke-dasharray="4 3"/>
<circle cx="586" cy="652" r="11" fill="#ffffff" stroke="#1d4ed8" stroke-width="1.5" stroke-dasharray="4 3"/>
<circle cx="418" cy="736" r="20" fill="#1d4ed8"/>
<text x="60" y="505" font-size="13" fill="#64748b" font-weight="700">Layer 1</text>
<text x="60" y="581" font-size="13" fill="#64748b" font-weight="700">Layer 2</text>
<text x="60" y="657" font-size="13" fill="#64748b" font-weight="700">Layer 3</text>
<text x="60" y="741" font-size="13" fill="#64748b" font-weight="700">Output</text>
<text x="614" y="505" font-size="13" fill="#64748b">64 to 1024 tanh units</text>
<text x="614" y="581" font-size="13" fill="#64748b">folds 0 and 2 only</text>
<text x="614" y="657" font-size="13" fill="#64748b">folds 0 and 2 only</text>
<text x="614" y="741" font-size="13" fill="#64748b">suicide logit, BCE loss</text>
<line x1="418" y1="758" x2="418" y2="834" stroke="#1e293b" stroke-width="2" stroke-linecap="round" marker-end="url(#arrow0)"/>
<rect x="128" y="840" width="580" height="44" rx="12" fill="#1d4ed8"/>
<text x="418" y="868" font-size="17" fill="#ffffff" font-weight="700" text-anchor="middle">Mean test AUC 0.716</text>
<text x="418" y="912" font-size="12" fill="#64748b" text-anchor="middle">Depth, width, learning rate, and epochs are chosen on each fold's development set.</text>
<rect x="1180" y="410" width="220" height="40" rx="10" fill="#1e293b"/>
<text x="1290" y="436" font-size="15" fill="#ffffff" font-weight="700" text-anchor="middle">1024 features</text>
<line x1="1290" y1="450" x2="1290" y2="462" stroke="#1e293b" stroke-width="2" stroke-linecap="round" marker-end="url(#arrow0)"/>
<rect x="1110" y="466" width="360" height="42" rx="10" fill="#334155"/>
<text x="1290" y="493" font-size="15" fill="#ffffff" font-weight="700" text-anchor="middle">Shared layer: 512 tanh units</text>
<path d="M1110,487 H1082 V787.0" stroke="#94a3b8" stroke-width="2" fill="none" stroke-linejoin="round" stroke-linecap="round"/>
<rect x="1110" y="532" width="360" height="54" rx="10" fill="#ffffff" stroke="#7c3aed" stroke-width="1.6"/>
<rect x="1110" y="532" width="10" height="54" rx="4" fill="#7c3aed"/>
<text x="1134" y="555" font-size="15" fill="#1e293b" font-weight="700">Personality: 5 scores</text>
<text x="1134" y="574" font-size="12" fill="#64748b">Big Five: O, C, E, A, N</text>
<rect x="1482" y="547" width="58" height="24" rx="12" fill="#ffffff" stroke="#7c3aed" stroke-width="1.4"/>
<text x="1511" y="564" font-size="12" fill="#7c3aed" font-weight="700" text-anchor="middle">MSE</text>
<rect x="1110" y="608" width="360" height="54" rx="10" fill="#ffffff" stroke="#0891b2" stroke-width="1.6"/>
<rect x="1110" y="608" width="10" height="54" rx="4" fill="#0891b2"/>
<text x="1134" y="631" font-size="15" fill="#1e293b" font-weight="700">Psychosocial: 4 scores</text>
<text x="1134" y="650" font-size="12" fill="#64748b">brooding, worry, loneliness, life satisfaction</text>
<line x1="1082" y1="635.0" x2="1106" y2="635.0" stroke="#94a3b8" stroke-width="2" stroke-linecap="round" marker-end="url(#arrow1)"/>
<rect x="1482" y="623" width="58" height="24" rx="12" fill="#ffffff" stroke="#0891b2" stroke-width="1.4"/>
<text x="1511" y="640" font-size="12" fill="#0891b2" font-weight="700" text-anchor="middle">MSE</text>
<rect x="1110" y="684" width="360" height="54" rx="10" fill="#ffffff" stroke="#b45309" stroke-width="1.6"/>
<rect x="1110" y="684" width="10" height="54" rx="4" fill="#b45309"/>
<text x="1134" y="707" font-size="15" fill="#1e293b" font-weight="700">Psychiatric: 2 scores</text>
<text x="1134" y="726" font-size="12" fill="#64748b">PHQ-9 depression, GAD anxiety</text>
<line x1="1082" y1="711.0" x2="1106" y2="711.0" stroke="#94a3b8" stroke-width="2" stroke-linecap="round" marker-end="url(#arrow1)"/>
<rect x="1482" y="699" width="58" height="24" rx="12" fill="#ffffff" stroke="#b45309" stroke-width="1.4"/>
<text x="1511" y="716" font-size="12" fill="#b45309" font-weight="700" text-anchor="middle">MSE</text>
<rect x="1110" y="760" width="360" height="54" rx="10" fill="#0f766e" stroke="#0f766e" stroke-width="1.6"/>
<text x="1134" y="783" font-size="15" fill="#ffffff" font-weight="700">Suicide: 1 logit</text>
<text x="1134" y="802" font-size="12" fill="#ccfbf1">high risk means a score of 3 or more</text>
<line x1="1082" y1="787.0" x2="1106" y2="787.0" stroke="#94a3b8" stroke-width="2" stroke-linecap="round" marker-end="url(#arrow1)"/>
<rect x="1482" y="775" width="58" height="24" rx="12" fill="#0f766e"/>
<text x="1511" y="792" font-size="12" fill="#ffffff" font-weight="700" text-anchor="middle">BCE</text>
<line x1="1290" y1="508" x2="1290" y2="529" stroke="#1e293b" stroke-width="2" stroke-linecap="round" marker-end="url(#arrow0)"/>
<line x1="1290" y1="586" x2="1290" y2="605" stroke="#1e293b" stroke-width="2" stroke-linecap="round" marker-end="url(#arrow0)"/>
<line x1="1290" y1="662" x2="1290" y2="681" stroke="#1e293b" stroke-width="2" stroke-linecap="round" marker-end="url(#arrow0)"/>
<line x1="1290" y1="738" x2="1290" y2="757" stroke="#1e293b" stroke-width="2" stroke-linecap="round" marker-end="url(#arrow0)"/>
<line x1="1290" y1="814" x2="1290" y2="836" stroke="#1e293b" stroke-width="2" stroke-linecap="round" marker-end="url(#arrow0)"/>
<rect x="1040" y="840" width="500" height="44" rx="12" fill="#b45309"/>
<text x="1290" y="868" font-size="16" fill="#ffffff" font-weight="700" text-anchor="middle">Logit + 0.1 × predicted PHQ-9: mean test AUC 0.734</text>
<text x="1290" y="912" font-size="12" fill="#64748b" text-anchor="middle">The PHQ-9 term is a ridge prediction from the 1024 features, fit on the training fold.</text>
<line x1="856" y1="474" x2="890" y2="474" stroke="#1e293b" stroke-width="2" stroke-linecap="round" marker-end="url(#arrow0)"/>
<text x="900" y="478" font-size="12.5" fill="#1e293b">previous stage's prediction</text>
<line x1="856" y1="504" x2="890" y2="504" stroke="#94a3b8" stroke-width="2" stroke-linecap="round" marker-end="url(#arrow1)"/>
<text x="900" y="508" font-size="12.5" fill="#1e293b">shared layer, passed again</text>
<rect x="856" y="524" width="40" height="20" rx="10" fill="#ffffff" stroke="#0891b2" stroke-width="1.4"/>
<text x="876" y="538" font-size="10.5" fill="#0891b2" font-weight="700" text-anchor="middle">MSE</text>
<text x="906" y="538" font-size="12.5" fill="#1e293b">z-scored questionnaire</text>
<rect x="856" y="554" width="40" height="20" rx="10" fill="#0f766e"/>
<text x="876" y="568" font-size="10.5" fill="#ffffff" font-weight="700" text-anchor="middle">BCE</text>
<text x="906" y="568" font-size="12.5" fill="#1e293b">high-risk label</text>
</svg>